<svg width="48" height="21" viewBox="0 0 48 21" fill="none" xmlns="http://www.w3.org/2000/svg">
<path d="M1.40625 2.39062C1.3125 2.46354 1.22396 2.48958 1.14062 2.46875C1.06771 2.4375 1.01042 2.39062 0.96875 2.32812C0.927083 2.25521 0.895833 2.17708 0.875 2.09375C0.854167 2 0.84375 1.91667 0.84375 1.84375C0.84375 1.79167 0.875 1.69792 0.9375 1.5625C1 1.41667 1.07292 1.27083 1.15625 1.125C1.23958 0.979167 1.31771 0.848958 1.39062 0.734375C1.47396 0.619792 1.52604 0.5625 1.54688 0.5625C1.97396 0.5625 2.41146 0.604167 2.85938 0.6875C3.31771 0.760417 3.76562 0.875 4.20312 1.03125C4.64062 1.17708 5.05208 1.36979 5.4375 1.60938C5.82292 1.84896 6.16146 2.13542 6.45312 2.46875C6.74479 2.79167 6.97396 3.16667 7.14062 3.59375C7.30729 4.01042 7.39062 4.47917 7.39062 5C7.39062 5.48958 7.27604 5.98438 7.04688 6.48438C6.82812 6.97396 6.53125 7.42188 6.15625 7.82812C5.78125 8.22396 5.35417 8.55208 4.875 8.8125C4.39583 9.0625 3.90104 9.1875 3.39062 9.1875V8.46875C3.81771 8.46875 4.23958 8.36458 4.65625 8.15625C5.07292 7.9375 5.44271 7.66146 5.76562 7.32812C6.08854 6.98438 6.34896 6.60417 6.54688 6.1875C6.75521 5.76042 6.85938 5.33854 6.85938 4.92188C6.85938 4.48438 6.74479 4.0625 6.51562 3.65625C6.29688 3.23958 6.01042 2.86979 5.65625 2.54688C5.3125 2.22396 4.92708 1.96354 4.5 1.76562C4.07292 1.56771 3.65104 1.46875 3.23438 1.46875C3.01562 1.46875 2.82292 1.47917 2.65625 1.5C2.48958 1.51042 2.3125 1.56771 2.125 1.67188V1.92188C2.125 2.02604 2.11979 2.14062 2.10938 2.26562C2.10938 2.39062 2.10938 2.51042 2.10938 2.625V2.85938C2.10938 3.43229 2.11458 3.98438 2.125 4.51562C2.14583 5.03646 2.17188 5.5625 2.20312 6.09375C2.23438 6.61458 2.27083 7.15104 2.3125 7.70312C2.36458 8.25521 2.42188 8.84375 2.48438 9.46875C2.48438 9.52083 2.5 9.64583 2.53125 9.84375C2.57292 10.0312 2.61458 10.2396 2.65625 10.4688C2.69792 10.6875 2.73438 10.8958 2.76562 11.0938C2.80729 11.2812 2.83333 11.401 2.84375 11.4531C2.84375 11.4635 2.84375 11.4792 2.84375 11.5C2.85417 11.5208 2.85938 11.5365 2.85938 11.5469C2.85938 11.5573 2.85417 11.5677 2.84375 11.5781C2.84375 11.5885 2.84375 11.599 2.84375 11.6094V11.6406C2.83333 11.651 2.8125 11.6771 2.78125 11.7188C2.75 11.75 2.71354 11.7865 2.67188 11.8281C2.64062 11.8698 2.60417 11.9062 2.5625 11.9375C2.53125 11.9688 2.50521 11.9896 2.48438 12L2.3125 11.8125C2.29167 11.8021 2.26562 11.7188 2.23438 11.5625C2.20312 11.4062 2.16667 11.224 2.125 11.0156C2.08333 10.7969 2.04167 10.5781 2 10.3594C1.96875 10.1406 1.94792 9.96354 1.9375 9.82812C1.91667 9.64062 1.89062 9.35417 1.85938 8.96875C1.83854 8.58333 1.80729 8.14583 1.76562 7.65625C1.72396 7.16667 1.68229 6.65625 1.64062 6.125C1.60938 5.58333 1.57812 5.06771 1.54688 4.57812C1.51562 4.08854 1.48438 3.65104 1.45312 3.26562C1.43229 2.86979 1.41667 2.57812 1.40625 2.39062ZM8.28125 6.03125L9.20312 9.82812H9.39062C9.42188 9.49479 9.47917 9.14062 9.5625 8.76562C9.65625 8.39062 9.78125 8.02083 9.9375 7.65625C10.0938 7.28125 10.276 6.92188 10.4844 6.57812C10.7031 6.23438 10.9479 5.93229 11.2188 5.67188C11.4896 5.41146 11.7917 5.20312 12.125 5.04688C12.4688 4.89062 12.8438 4.8125 13.25 4.8125C13.25 5.0625 13.1458 5.28125 12.9375 5.46875C12.7396 5.65625 12.5 5.83854 12.2188 6.01562C11.9375 6.19271 11.6458 6.38021 11.3438 6.57812C11.0521 6.77604 10.8229 7.01562 10.6562 7.29688C10.4792 7.57812 10.3333 7.90625 10.2188 8.28125C10.1146 8.64583 10.026 9.02604 9.95312 9.42188C9.89062 9.80729 9.84375 10.1979 9.8125 10.5938C9.78125 10.9792 9.75521 11.3281 9.73438 11.6406C9.67188 11.7344 9.60417 11.8229 9.53125 11.9062C9.46875 11.9792 9.38542 12.0156 9.28125 12.0156C9.23958 12.0156 9.1875 12.0052 9.125 11.9844C9.0625 11.9531 9.02083 11.8958 9 11.8125L7.875 6.03125H8.28125ZM13.7031 9.64062C13.7031 9.43229 13.7031 9.15625 13.7031 8.8125C13.7135 8.45833 13.7396 8.08333 13.7812 7.6875C13.8229 7.28125 13.8854 6.86979 13.9688 6.45312C14.0521 6.03646 14.1719 5.66146 14.3281 5.32812C14.4844 4.99479 14.6823 4.72396 14.9219 4.51562C15.1615 4.30729 15.4583 4.20312 15.8125 4.20312C16.3021 4.20312 16.6927 4.33854 16.9844 4.60938C17.2865 4.88021 17.5156 5.21875 17.6719 5.625C17.8385 6.02083 17.9479 6.44792 18 6.90625C18.0625 7.35417 18.0938 7.76042 18.0938 8.125C18.0938 8.52083 18.0365 8.94792 17.9219 9.40625C17.8073 9.86458 17.6302 10.2865 17.3906 10.6719C17.151 11.0573 16.849 11.3802 16.4844 11.6406C16.1302 11.8906 15.7031 12.0156 15.2031 12.0156C14.8802 12.0156 14.6198 11.9427 14.4219 11.7969C14.224 11.6406 14.0729 11.4479 13.9688 11.2188C13.875 10.9896 13.8073 10.7344 13.7656 10.4531C13.724 10.1719 13.7031 9.90104 13.7031 9.64062ZM14.2344 9.45312C14.2344 9.65104 14.2396 9.85938 14.25 10.0781C14.2604 10.2865 14.2917 10.4844 14.3438 10.6719C14.3958 10.8594 14.4896 11.0104 14.625 11.125C14.7604 11.2396 14.9583 11.2969 15.2188 11.2969C15.6771 11.2969 16.0521 11.1927 16.3438 10.9844C16.6458 10.776 16.8854 10.5104 17.0625 10.1875C17.2396 9.85417 17.3594 9.48958 17.4219 9.09375C17.4948 8.69792 17.5312 8.31771 17.5312 7.95312C17.5312 7.72396 17.5104 7.42708 17.4688 7.0625C17.4375 6.69792 17.3646 6.34375 17.25 6C17.1354 5.65625 16.9688 5.36458 16.75 5.125C16.5312 4.875 16.2448 4.75 15.8906 4.75C15.6406 4.75 15.4219 4.84896 15.2344 5.04688C15.0573 5.24479 14.9062 5.5 14.7812 5.8125C14.6562 6.125 14.5573 6.46875 14.4844 6.84375C14.4219 7.21875 14.3698 7.57812 14.3281 7.92188C14.2865 8.26562 14.2604 8.57812 14.25 8.85938C14.2396 9.14062 14.2344 9.33854 14.2344 9.45312ZM17.1875 18.6406C17.3125 18.6406 17.4167 18.6979 17.5 18.8125C17.5833 18.9375 17.6667 19.0729 17.75 19.2188C17.8229 19.375 17.9115 19.5104 18.0156 19.625C18.1198 19.75 18.2656 19.8125 18.4531 19.8125C18.7552 19.7188 19.0156 19.4583 19.2344 19.0312C19.4531 18.6146 19.6198 18.0938 19.7344 17.4688C19.8594 16.8438 19.9375 16.1406 19.9688 15.3594C20.0104 14.5885 20.0052 13.7969 19.9531 12.9844C19.901 12.1823 19.8073 11.3854 19.6719 10.5938C19.5469 9.79167 19.3854 9.05729 19.1875 8.39062V8.21875C19.1875 8.11458 19.2292 8.02083 19.3125 7.9375C19.4062 7.84375 19.5052 7.79688 19.6094 7.79688C19.8177 8.53646 20.0052 9.34375 20.1719 10.2188C20.3385 11.0833 20.4583 11.9583 20.5312 12.8438C20.6146 13.7396 20.6458 14.6094 20.625 15.4531C20.6146 16.2969 20.5469 17.0573 20.4219 17.7344C20.2969 18.4219 20.1042 18.9948 19.8438 19.4531C19.5833 19.9219 19.2448 20.2188 18.8281 20.3438C18.6094 20.4792 18.4062 20.4948 18.2188 20.3906C18.0208 20.2969 17.849 20.1458 17.7031 19.9375C17.5573 19.7396 17.4375 19.5104 17.3438 19.25C17.25 19 17.1979 18.7969 17.1875 18.6406ZM18.4219 4.0625V3.70312C18.4219 3.64062 18.4271 3.58333 18.4375 3.53125C18.4583 3.47917 18.4896 3.4375 18.5312 3.40625C18.5729 3.36458 18.6302 3.34375 18.7031 3.34375C18.7969 3.34375 18.8646 3.36979 18.9062 3.42188C18.9479 3.46354 18.974 3.51562 18.9844 3.57812C19.0052 3.64062 19.0104 3.70833 19 3.78125C19 3.85417 19 3.91667 19 3.96875C19 4.03125 19 4.09896 19 4.17188C19.0104 4.24479 19.0052 4.31771 18.9844 4.39062C18.974 4.45312 18.9479 4.51042 18.9062 4.5625C18.8646 4.60417 18.7969 4.625 18.7031 4.625C18.6302 4.625 18.5729 4.59375 18.5312 4.53125C18.4896 4.46875 18.4583 4.40104 18.4375 4.32812C18.4271 4.24479 18.4219 4.15625 18.4219 4.0625ZM23.6875 8.375C23.4479 8.52083 23.2031 8.63542 22.9531 8.71875C22.7031 8.79167 22.5 8.73958 22.3438 8.5625C22.3438 8.36458 22.4115 8.23438 22.5469 8.17188C22.6823 8.09896 22.8333 8.04167 23 8C23.1771 7.95833 23.349 7.90625 23.5156 7.84375C23.6927 7.78125 23.8125 7.65625 23.875 7.46875C23.9375 7.26042 23.9948 7.01042 24.0469 6.71875C24.099 6.42708 24.1719 6.14583 24.2656 5.875C24.3594 5.60417 24.4948 5.38021 24.6719 5.20312C24.849 5.01562 25.0938 4.92188 25.4062 4.92188C25.5833 4.92188 25.8021 4.98438 26.0625 5.10938C26.3333 5.22396 26.5885 5.36458 26.8281 5.53125C27.0677 5.69792 27.2708 5.875 27.4375 6.0625C27.6042 6.25 27.6875 6.42188 27.6875 6.57812C27.6875 6.65104 27.6771 6.71875 27.6562 6.78125C27.6458 6.84375 27.5938 6.89583 27.5 6.9375L24.4219 8L24.4062 8.07812C24.4062 8.11979 24.401 8.17708 24.3906 8.25V8.4375C24.3906 8.51042 24.3906 8.5625 24.3906 8.59375C24.3906 8.80208 24.4062 9.0625 24.4375 9.375C24.4688 9.67708 24.5312 9.97396 24.625 10.2656C24.7292 10.5469 24.8698 10.7917 25.0469 11C25.224 11.2083 25.4635 11.3125 25.7656 11.3125C25.8802 11.3125 25.974 11.2917 26.0469 11.25C26.1302 11.1979 26.2083 11.1458 26.2812 11.0938C26.3646 11.0312 26.4427 10.9792 26.5156 10.9375C26.599 10.8854 26.6927 10.8594 26.7969 10.8594C26.7969 11.0156 26.7604 11.1667 26.6875 11.3125C26.625 11.4479 26.5365 11.5677 26.4219 11.6719C26.3073 11.776 26.1771 11.8594 26.0312 11.9219C25.8854 11.9844 25.7396 12.0156 25.5938 12.0156C25.1979 12.0156 24.8802 11.8802 24.6406 11.6094C24.401 11.3281 24.2135 10.9948 24.0781 10.6094C23.9531 10.2135 23.8646 9.8125 23.8125 9.40625C23.7604 8.98958 23.7188 8.64583 23.6875 8.375ZM25.5938 5.60938C25.4062 5.60938 25.2448 5.66146 25.1094 5.76562C24.9844 5.86979 24.8802 6 24.7969 6.15625C24.7135 6.3125 24.651 6.48438 24.6094 6.67188C24.5781 6.84896 24.5625 7.01042 24.5625 7.15625C24.7292 7.15625 24.9115 7.14583 25.1094 7.125C25.3177 7.10417 25.5208 7.0625 25.7188 7C25.9167 6.9375 26.0938 6.85938 26.25 6.76562C26.4167 6.66146 26.5312 6.53646 26.5938 6.39062C26.4375 6.14062 26.2917 5.94792 26.1562 5.8125C26.0208 5.67708 25.8333 5.60938 25.5938 5.60938ZM28.2969 9.73438C28.2969 9.63021 28.3125 9.4375 28.3438 9.15625C28.375 8.86458 28.4167 8.53125 28.4688 8.15625C28.5312 7.78125 28.6146 7.39062 28.7188 6.98438C28.8229 6.57812 28.9427 6.20312 29.0781 5.85938C29.224 5.51562 29.3854 5.23438 29.5625 5.01562C29.75 4.79688 29.9635 4.6875 30.2031 4.6875C30.1094 4.97917 29.9844 5.32292 29.8281 5.71875C29.6823 6.11458 29.5417 6.53125 29.4062 6.96875C29.2708 7.39583 29.1562 7.83333 29.0625 8.28125C28.9792 8.72917 28.9531 9.15104 28.9844 9.54688C29.026 9.93229 29.1458 10.2812 29.3438 10.5938C29.5417 10.9062 29.8542 11.1458 30.2812 11.3125C30.6771 11.3125 31.0208 11.224 31.3125 11.0469C31.6042 10.8698 31.8542 10.6719 32.0625 10.4531C32.2812 10.2344 32.4688 10.0365 32.625 9.85938C32.7917 9.68229 32.9427 9.59375 33.0781 9.59375C33.0781 9.98958 32.9792 10.3385 32.7812 10.6406C32.5938 10.9427 32.349 11.1979 32.0469 11.4062C31.7552 11.6042 31.4219 11.7552 31.0469 11.8594C30.6823 11.9635 30.3125 12.0156 29.9375 12.0156C29.6458 12.0156 29.3906 11.9427 29.1719 11.7969C28.9635 11.651 28.7917 11.4688 28.6562 11.25C28.5312 11.0208 28.4375 10.776 28.375 10.5156C28.3229 10.2448 28.2969 9.98438 28.2969 9.73438ZM36.8281 7.10938C36.599 7.10938 36.3698 7.14062 36.1406 7.20312C35.9115 7.26562 35.6823 7.33333 35.4531 7.40625C35.2344 7.46875 35.0104 7.53125 34.7812 7.59375C34.5625 7.64583 34.3333 7.67188 34.0938 7.67188C33.9583 7.67188 33.849 7.64583 33.7656 7.59375C33.6823 7.54167 33.6406 7.4375 33.6406 7.28125C33.6406 7.15625 33.6719 7.07292 33.7344 7.03125C33.8073 6.97917 33.8906 6.95312 33.9844 6.95312C34.0885 6.94271 34.1927 6.94271 34.2969 6.95312C34.4115 6.96354 34.5 6.95833 34.5625 6.9375C34.6458 6.91667 34.7969 6.88021 35.0156 6.82812C35.2448 6.77604 35.4844 6.72396 35.7344 6.67188C35.9844 6.61979 36.2188 6.56771 36.4375 6.51562C36.6667 6.46354 36.8229 6.42188 36.9062 6.39062C36.9062 6.35938 36.9062 6.30729 36.9062 6.23438C36.9167 6.15104 36.9219 6.06771 36.9219 5.98438C36.9323 5.89062 36.9375 5.80729 36.9375 5.73438V5.5625C36.9375 5.25 36.9167 4.94792 36.875 4.65625C36.8333 4.35417 36.7865 4.05208 36.7344 3.75C36.6927 3.44792 36.651 3.14583 36.6094 2.84375C36.5677 2.54167 36.5469 2.23958 36.5469 1.9375C36.5469 1.83333 36.5573 1.73438 36.5781 1.64062C36.6094 1.53646 36.6927 1.48438 36.8281 1.48438C36.8802 1.48438 36.9323 1.5 36.9844 1.53125C37.0469 1.55208 37.0833 1.59896 37.0938 1.67188L37.6406 6.1875C37.651 6.19792 37.6615 6.20312 37.6719 6.20312H37.7188C37.8229 6.20312 37.9844 6.17708 38.2031 6.125C38.4219 6.07292 38.6667 6.01042 38.9375 5.9375C39.2083 5.86458 39.4948 5.78646 39.7969 5.70312C40.1094 5.61979 40.4062 5.54688 40.6875 5.48438C40.9688 5.41146 41.224 5.35938 41.4531 5.32812C41.6823 5.28646 41.8594 5.28125 41.9844 5.3125C42.026 5.32292 42.0938 5.375 42.1875 5.46875C42.2812 5.55208 42.3385 5.61458 42.3594 5.65625C42.3802 5.76042 42.2917 5.86458 42.0938 5.96875C41.8958 6.0625 41.6354 6.15625 41.3125 6.25C41 6.33333 40.651 6.41146 40.2656 6.48438C39.8802 6.55729 39.5104 6.625 39.1562 6.6875C38.8125 6.73958 38.5156 6.79167 38.2656 6.84375C38.0156 6.88542 37.8646 6.91667 37.8125 6.9375V7.25C37.8125 7.38542 37.8073 7.53646 37.7969 7.70312C37.7969 7.85938 37.7969 8.01042 37.7969 8.15625V8.46875C37.7969 9 37.8333 9.52083 37.9062 10.0312C37.9792 10.5312 38.0156 11.0365 38.0156 11.5469C38.0156 11.6198 37.9948 11.6823 37.9531 11.7344C37.9115 11.776 37.8594 11.8177 37.7969 11.8594C37.7344 11.8906 37.6719 11.9219 37.6094 11.9531C37.5469 11.974 37.5 11.9896 37.4688 12C37.3854 11.5521 37.3229 11.1458 37.2812 10.7812C37.25 10.4062 37.224 10.0365 37.2031 9.67188C37.1927 9.30729 37.1771 8.92188 37.1562 8.51562C37.1458 8.09896 37.125 7.63021 37.0938 7.10938H36.8281ZM42.1406 11.4688C42.1406 11.3438 42.151 11.2396 42.1719 11.1562C42.1927 11.0625 42.224 11 42.2656 10.9688C42.3177 10.9271 42.375 10.9271 42.4375 10.9688C42.5104 11 42.599 11.0833 42.7031 11.2188C42.8906 11.2188 43.1094 11.2083 43.3594 11.1875C43.6094 11.1667 43.8698 11.1302 44.1406 11.0781C44.4115 11.026 44.6771 10.9583 44.9375 10.875C45.2083 10.7917 45.4427 10.6823 45.6406 10.5469C45.849 10.401 46.0156 10.2344 46.1406 10.0469C46.2656 9.84896 46.3281 9.61979 46.3281 9.35938C46.3281 9.09896 46.2083 8.90625 45.9688 8.78125C45.7292 8.65625 45.4219 8.5625 45.0469 8.5C44.6823 8.42708 44.2865 8.35938 43.8594 8.29688C43.4427 8.22396 43.0521 8.11979 42.6875 7.98438C42.3229 7.83854 42.0156 7.63542 41.7656 7.375C41.526 7.10417 41.4062 6.72917 41.4062 6.25C41.4062 5.91667 41.4635 5.63542 41.5781 5.40625C41.6927 5.17708 41.8854 4.96354 42.1562 4.76562C42.2708 4.67188 42.474 4.52604 42.7656 4.32812C43.0573 4.11979 43.3646 3.90104 43.6875 3.67188C44.0208 3.43229 44.3333 3.21354 44.625 3.01562C44.9167 2.80729 45.1198 2.66146 45.2344 2.57812C45.2552 2.57812 45.2812 2.57812 45.3125 2.57812C45.3542 2.56771 45.3854 2.5625 45.4062 2.5625C45.6667 2.5625 45.7969 2.6875 45.7969 2.9375C45.7969 3.05208 45.7031 3.17708 45.5156 3.3125C45.3281 3.4375 45.0885 3.57812 44.7969 3.73438C44.5156 3.89062 44.2083 4.05729 43.875 4.23438C43.5521 4.41146 43.2448 4.60938 42.9531 4.82812C42.6719 5.03646 42.4375 5.26562 42.25 5.51562C42.0625 5.75521 41.9688 6.01562 41.9688 6.29688C41.9688 6.59896 42.0417 6.81771 42.1875 6.95312C42.3438 7.08854 42.5729 7.20312 42.875 7.29688C43 7.32812 43.2135 7.39062 43.5156 7.48438C43.8281 7.56771 44.1562 7.66146 44.5 7.76562C44.8542 7.85938 45.1823 7.94792 45.4844 8.03125C45.7969 8.11458 46.0156 8.17188 46.1406 8.20312C46.4115 8.34896 46.6302 8.51042 46.7969 8.6875C46.974 8.85417 47.0625 9.08854 47.0625 9.39062C47.0625 9.68229 46.9844 9.94792 46.8281 10.1875C46.6823 10.4271 46.4844 10.6458 46.2344 10.8438C45.9948 11.0312 45.7135 11.2031 45.3906 11.3594C45.0781 11.5052 44.7604 11.6302 44.4375 11.7344C44.1146 11.8281 43.7969 11.901 43.4844 11.9531C43.1823 11.9948 42.9115 12.0156 42.6719 12.0156C42.4427 12.0156 42.2969 11.9844 42.2344 11.9219C42.1719 11.849 42.1406 11.6979 42.1406 11.4688Z" fill="white"/>
</svg>
